# xmcd
# 
# Track frame offsets:
#     150
#     22640
#     49700
#     78717
# 
# Disc length: 1347
# 
# Revision: 5
# Processed by: cddbd v1.5.2PL0 Copyright (c) Steve Scherf et al.
# Submitted via: BonkEnc v1.0.8
# 
DISCID=22054104
DTITLE=CHEMISTRY - PIECES OF A DREAM
DYEAR=2001
DGENRE=R&B
TTITLE0=PIECES OF A DREAM
TTITLE1=TWO
TTITLE2=PIECES OF A DREAM (OLD SCHOOL MIX)
TTITLE3=PIECES OF A DREAM (LESS VOCAL)
EXTD=YEAR: 2001 ID3G:  14
EXTT0=
EXTT1=
EXTT2=
EXTT3=
PLAYORDER=
